<svg width="16" height="13" viewBox="0 0 16 13" fill="none" xmlns="http://www.w3.org/2000/svg">
<path d="M15.9642 9.87926C15.9645 9.87582 15.9645 9.87236 15.9642 9.86892L14.8713 3.65182V3.63852C14.7026 2.61777 14.2162 1.69478 13.4968 1.03004C12.7775 0.365291 11.8705 0.000823673 10.9337 3.26959e-07H5.05826C4.1188 -0.000399622 3.20929 0.366137 2.4897 1.03515C1.77011 1.70415 1.28652 2.63279 1.12398 3.65773L0.0363856 9.86892C0.0360644 9.87236 0.0360644 9.87582 0.0363856 9.87926C-0.0521406 10.4361 0.0218542 11.0096 0.247627 11.5167C0.4734 12.0237 0.839197 12.4379 1.29191 12.699C1.74462 12.9601 2.26069 13.0546 2.76517 12.9687C3.26966 12.8828 3.7363 12.6211 4.09736 12.2215L4.1207 12.1941L6.76734 8.86364H9.2346L11.8826 12.1941C11.8899 12.2037 11.8979 12.2126 11.9059 12.2215C12.3559 12.7188 12.9653 12.9987 13.601 13C13.9514 12.9997 14.2975 12.9145 14.615 12.7503C14.9325 12.5861 15.2137 12.3469 15.4388 12.0495C15.664 11.7521 15.8276 11.4037 15.9183 11.0288C16.0089 10.6539 16.0244 10.2615 15.9635 9.87926H15.9642ZM6.39925 5.31818H5.86579V5.90909C5.86579 6.06581 5.80958 6.21611 5.70954 6.32693C5.6095 6.43774 5.47381 6.5 5.33232 6.5C5.19084 6.5 5.05515 6.43774 4.95511 6.32693C4.85507 6.21611 4.79886 6.06581 4.79886 5.90909V5.31818H4.2654C4.12392 5.31818 3.98823 5.25593 3.88819 5.14511C3.78814 5.03429 3.73194 4.88399 3.73194 4.72727C3.73194 4.57055 3.78814 4.42025 3.88819 4.30944C3.98823 4.19862 4.12392 4.13636 4.2654 4.13636H4.79886V3.54545C4.79886 3.38874 4.85507 3.23844 4.95511 3.12762C5.05515 3.0168 5.19084 2.95455 5.33232 2.95455C5.47381 2.95455 5.6095 3.0168 5.70954 3.12762C5.80958 3.23844 5.86579 3.38874 5.86579 3.54545V4.13636H6.39925C6.54073 4.13636 6.67642 4.19862 6.77646 4.30944C6.87651 4.42025 6.93271 4.57055 6.93271 4.72727C6.93271 4.88399 6.87651 5.03429 6.77646 5.14511C6.67642 5.25593 6.54073 5.31818 6.39925 5.31818ZM9.06656 4.72727C9.06656 4.57055 9.12276 4.42025 9.2228 4.30944C9.32285 4.19862 9.45853 4.13636 9.60002 4.13636H11.2004C11.3419 4.13636 11.4776 4.19862 11.5776 4.30944C11.6777 4.42025 11.7339 4.57055 11.7339 4.72727C11.7339 4.88399 11.6777 5.03429 11.5776 5.14511C11.4776 5.25593 11.3419 5.31818 11.2004 5.31818H9.60002C9.45853 5.31818 9.32285 5.25593 9.2228 5.14511C9.12276 5.03429 9.06656 4.88399 9.06656 4.72727ZM14.6926 11.1881C14.5927 11.3475 14.4652 11.4833 14.3175 11.5876C14.1698 11.692 14.0049 11.7628 13.8324 11.796C13.6236 11.8365 13.4092 11.8215 13.2066 11.7523C13.0041 11.683 12.8193 11.5616 12.6674 11.3979L10.6536 8.86364H10.9337C11.6147 8.86374 12.2846 8.67126 12.8797 8.30442C13.4748 7.93758 13.9756 7.40854 14.3345 6.76739L14.9173 10.0912C14.947 10.2815 14.9424 10.4763 14.9038 10.6645C14.8653 10.8528 14.7935 11.0307 14.6926 11.1881Z" fill="white"/>
</svg>
