<svg width="36" height="38" viewBox="0 0 36 38" fill="none" xmlns="http://www.w3.org/2000/svg">
<path d="M33.1718 8.65946L17.5925 0L2.01338 8.65946L11.9238 14.1522C13.3508 12.6666 15.3642 11.7284 17.5925 11.7284C19.8209 11.7284 21.8343 12.6666 23.2613 14.1522L33.1718 8.65946ZM13.6831 19.5473C13.6831 17.3971 15.4423 15.6378 17.5925 15.6378C19.7428 15.6378 21.502 17.3971 21.502 19.5473C21.502 21.6975 19.7428 23.4568 17.5925 23.4568C15.4423 23.4568 13.6831 21.6975 13.6831 19.5473ZM15.6378 38L0 29.321V12.002L10.0277 17.573C9.85185 18.1985 9.77365 18.8631 9.77365 19.5473C9.77365 23.1831 12.2561 26.252 15.6378 27.1121V38ZM19.5473 38V27.1121C22.929 26.252 25.4115 23.1831 25.4115 19.5473C25.4115 18.8631 25.3333 18.1985 25.1574 17.573L35.1851 12.002V29.321L19.5473 38Z" fill="url(#paint0_linear_331_152)"/>
<defs>
<linearGradient id="paint0_linear_331_152" x1="0" y1="19" x2="35.1851" y2="19" gradientUnits="userSpaceOnUse">
<stop stop-color="#4776E6"/>
<stop offset="1" stop-color="#8E54E9"/>
</linearGradient>
</defs>
</svg>
