<svg width="16" height="16" viewBox="0 0 16 16" fill="none" xmlns="http://www.w3.org/2000/svg">
<path d="M9.94984 9.68333C10.0498 9.78333 10.1692 9.83067 10.3078 9.82533C10.4465 9.82 10.5661 9.76711 10.6665 9.66667C10.7665 9.56667 10.8165 9.44734 10.8165 9.30867C10.8165 9.17 10.7665 9.05045 10.6665 8.95L9.63317 7.93333C9.7554 7.74445 9.84717 7.54445 9.90851 7.33333C9.96984 7.12222 10.0003 6.9 9.99984 6.66667C9.99984 6.01111 9.76917 5.45822 9.30784 5.008C8.84651 4.55778 8.2994 4.33289 7.66651 4.33333C7.03317 4.33333 6.48584 4.55822 6.02451 5.008C5.56317 5.45778 5.33273 6.01067 5.33317 6.66667C5.33317 7.32222 5.56384 7.87511 6.02517 8.32533C6.48651 8.77556 7.03362 9.00045 7.66651 9C7.89984 9 8.1194 8.97489 8.32517 8.92467C8.53095 8.87445 8.73362 8.78845 8.93317 8.66667L9.94984 9.68333ZM7.66651 8C7.29984 8 6.98584 7.86933 6.72451 7.608C6.46317 7.34667 6.33273 7.03289 6.33317 6.66667C6.33317 6.3 6.46384 5.986 6.72517 5.72467C6.98651 5.46333 7.30028 5.33289 7.66651 5.33333C8.02206 5.33333 8.33317 5.464 8.59984 5.72533C8.86651 5.98667 8.99984 6.30045 8.99984 6.66667C8.99984 7.03333 8.86917 7.34733 8.60784 7.60867C8.34651 7.87 8.03273 8.00045 7.66651 8ZM2.66651 12C2.29984 12 1.98584 11.8693 1.72451 11.608C1.46317 11.3467 1.33273 11.0329 1.33317 10.6667V3.33333C1.33317 2.96667 1.46384 2.65267 1.72517 2.39133C1.98651 2.13 2.30028 1.99956 2.66651 2H13.3332C13.6998 2 14.0138 2.13067 14.2752 2.392C14.5365 2.65333 14.667 2.96711 14.6665 3.33333V10.6667C14.6665 11.0333 14.5358 11.3473 14.2745 11.6087C14.0132 11.87 13.6994 12.0004 13.3332 12H2.66651ZM1.33317 14C1.14428 14 0.98584 13.936 0.85784 13.808C0.72984 13.68 0.666062 13.5218 0.666506 13.3333C0.666506 13.1444 0.730506 12.986 0.858506 12.858C0.986506 12.73 1.14473 12.6662 1.33317 12.6667H14.6665C14.8554 12.6667 15.0138 12.7307 15.1418 12.8587C15.2698 12.9867 15.3336 13.1449 15.3332 13.3333C15.3332 13.5222 15.2692 13.6807 15.1412 13.8087C15.0132 13.9367 14.855 14.0004 14.6665 14H1.33317Z" fill="white"/>
</svg>
