<svg width="16" height="16" viewBox="0 0 16 16" fill="none" xmlns="http://www.w3.org/2000/svg">
<path d="M7.99984 8.00004C7.60427 8.00004 7.2176 8.11734 6.8887 8.3371C6.5598 8.55686 6.30345 8.86922 6.15208 9.23467C6.0007 9.60013 5.9611 10.0023 6.03827 10.3902C6.11544 10.7782 6.30592 11.1345 6.58562 11.4143C6.86533 11.694 7.22169 11.8844 7.60966 11.9616C7.99762 12.0388 8.39975 11.9992 8.7652 11.8478C9.13066 11.6964 9.44301 11.4401 9.66278 11.1112C9.88254 10.7823 9.99984 10.3956 9.99984 10C9.99984 9.46961 9.78912 8.9609 9.41405 8.58583C9.03898 8.21075 8.53027 8.00004 7.99984 8.00004ZM7.99984 10.6667C7.86798 10.6667 7.73909 10.6276 7.62946 10.5544C7.51982 10.4811 7.43438 10.377 7.38392 10.2552C7.33346 10.1333 7.32026 9.9993 7.34598 9.86998C7.3717 9.74066 7.4352 9.62187 7.52843 9.52864C7.62167 9.4354 7.74046 9.37191 7.86978 9.34618C7.9991 9.32046 8.13314 9.33366 8.25496 9.38412C8.37678 9.43458 8.4809 9.52003 8.55415 9.62966C8.6274 9.73929 8.6665 9.86819 8.6665 10C8.6665 10.1769 8.59627 10.3464 8.47124 10.4714C8.34622 10.5965 8.17665 10.6667 7.99984 10.6667ZM7.5265 6.47337C7.58991 6.53407 7.66467 6.58164 7.7465 6.61337C7.8263 6.64864 7.91259 6.66686 7.99984 6.66686C8.08708 6.66686 8.17337 6.64864 8.25317 6.61337C8.33501 6.58164 8.40977 6.53407 8.47317 6.47337L9.99984 4.97337C10.1289 4.8443 10.2014 4.66924 10.2014 4.48671C10.2014 4.30417 10.1289 4.12911 9.99984 4.00004C9.87077 3.87097 9.69571 3.79846 9.51317 3.79846C9.33064 3.79846 9.15558 3.87097 9.0265 4.00004L8.6665 4.39337V2.00004C8.6665 1.82323 8.59627 1.65366 8.47124 1.52864C8.34622 1.40361 8.17665 1.33337 7.99984 1.33337C7.82303 1.33337 7.65346 1.40361 7.52843 1.52864C7.40341 1.65366 7.33317 1.82323 7.33317 2.00004V4.39337L6.97317 4.00004C6.8441 3.87097 6.66904 3.79846 6.4865 3.79846C6.30397 3.79846 6.12891 3.87097 5.99984 4.00004C5.87077 4.12911 5.79825 4.30417 5.79825 4.48671C5.79825 4.66924 5.87077 4.8443 5.99984 4.97337L7.5265 6.47337ZM12.6665 10C12.6665 9.86819 12.6274 9.73929 12.5542 9.62966C12.4809 9.52003 12.3768 9.43458 12.255 9.38412C12.1331 9.33366 11.9991 9.32046 11.8698 9.34618C11.7405 9.37191 11.6217 9.4354 11.5284 9.52864C11.4352 9.62187 11.3717 9.74066 11.346 9.86998C11.3203 9.9993 11.3335 10.1333 11.3839 10.2552C11.4344 10.377 11.5198 10.4811 11.6295 10.5544C11.7391 10.6276 11.868 10.6667 11.9998 10.6667C12.1766 10.6667 12.3462 10.5965 12.4712 10.4714C12.5963 10.3464 12.6665 10.1769 12.6665 10ZM13.3332 5.33337H11.3332C11.1564 5.33337 10.9868 5.40361 10.8618 5.52864C10.7367 5.65366 10.6665 5.82323 10.6665 6.00004C10.6665 6.17685 10.7367 6.34642 10.8618 6.47144C10.9868 6.59647 11.1564 6.66671 11.3332 6.66671H13.3332C13.51 6.66671 13.6796 6.73695 13.8046 6.86197C13.9296 6.98699 13.9998 7.15656 13.9998 7.33337V12.6667C13.9998 12.8435 13.9296 13.0131 13.8046 13.1381C13.6796 13.2631 13.51 13.3334 13.3332 13.3334H2.6665C2.48969 13.3334 2.32012 13.2631 2.1951 13.1381C2.07008 13.0131 1.99984 12.8435 1.99984 12.6667V7.33337C1.99984 7.15656 2.07008 6.98699 2.1951 6.86197C2.32012 6.73695 2.48969 6.66671 2.6665 6.66671H4.6665C4.84332 6.66671 5.01288 6.59647 5.13791 6.47144C5.26293 6.34642 5.33317 6.17685 5.33317 6.00004C5.33317 5.82323 5.26293 5.65366 5.13791 5.52864C5.01288 5.40361 4.84332 5.33337 4.6665 5.33337H2.6665C2.13607 5.33337 1.62736 5.54409 1.25229 5.91916C0.877218 6.29423 0.666504 6.80294 0.666504 7.33337V12.6667C0.666504 13.1971 0.877218 13.7058 1.25229 14.0809C1.62736 14.456 2.13607 14.6667 2.6665 14.6667H13.3332C13.8636 14.6667 14.3723 14.456 14.7474 14.0809C15.1225 13.7058 15.3332 13.1971 15.3332 12.6667V7.33337C15.3332 6.80294 15.1225 6.29423 14.7474 5.91916C14.3723 5.54409 13.8636 5.33337 13.3332 5.33337ZM3.33317 10C3.33317 10.1319 3.37227 10.2608 3.44552 10.3704C3.51878 10.4801 3.6229 10.5655 3.74472 10.616C3.86653 10.6664 4.00058 10.6796 4.1299 10.6539C4.25922 10.6282 4.37801 10.5647 4.47124 10.4714C4.56448 10.3782 4.62797 10.2594 4.65369 10.1301C4.67942 10.0008 4.66622 9.86674 4.61576 9.74492C4.5653 9.6231 4.47985 9.51898 4.37022 9.44573C4.26058 9.37247 4.13169 9.33337 3.99984 9.33337C3.82303 9.33337 3.65346 9.40361 3.52843 9.52864C3.40341 9.65366 3.33317 9.82323 3.33317 10Z" fill="white"/>
</svg>
